<svg width="current" height="current" viewBox="0 0 30 30" fill="none" xmlns="http://www.w3.org/2000/svg">
<circle cx="15" cy="15" r="15" fill="#EDEFF5"/>
<g clip-path="url(#clip0_1386_188)">
<mask id="mask0_1386_188" style="mask-type:alpha" maskUnits="userSpaceOnUse" x="0" y="-1" width="31" height="31">
<circle cx="15.0005" cy="14.9999" r="15" fill="#E9F1FF"/>
</mask>
<g mask="url(#mask0_1386_188)">
<path d="M15.0853 15.8537C18.1055 15.8537 20.5539 13.4239 20.5539 10.4266C20.5539 7.42935 18.1055 4.99957 15.0853 4.99957C12.0651 4.99957 9.6167 7.42935 9.6167 10.4266C9.6167 13.4239 12.0651 15.8537 15.0853 15.8537Z" fill="#8F95B2"/>
<path d="M14.9997 18.3699C12.1 18.3732 9.31998 19.5178 7.26958 21.5527C5.21918 23.5875 4.06581 26.3464 4.0625 29.2241C4.0625 29.4297 4.14481 29.6269 4.29132 29.7723C4.43782 29.9177 4.63653 29.9994 4.84373 29.9994H25.1556C25.3628 29.9994 25.5615 29.9177 25.708 29.7723C25.8545 29.6269 25.9368 29.4297 25.9368 29.2241C25.9335 26.3464 24.7802 23.5875 22.7298 21.5527C20.6794 19.5178 17.8994 18.3732 14.9997 18.3699Z" fill="#8F95B2"/>
</g>
</g>
<defs>
<clipPath id="clip0_1386_188">
<rect width="24.9992" height="24.9992" fill="white" transform="translate(2.50098 4.99988)"/>
</clipPath>
</defs>
</svg>
