<svg width="25" height="25" viewBox="0 0 25 25" fill="none" xmlns="http://www.w3.org/2000/svg">
<path d="M15.6248 17.7083H20.8332L19.3697 16.2449C18.9728 15.848 18.7498 15.3097 18.7498 14.7484V11.4583C18.7498 8.73705 17.0107 6.42197 14.5832 5.56397V5.20833C14.5832 4.05774 13.6504 3.125 12.4998 3.125C11.3492 3.125 10.4165 4.05774 10.4165 5.20833V5.56397C7.98902 6.42197 6.24984 8.73705 6.24984 11.4583V14.7484C6.24984 15.3097 6.02687 15.848 5.62998 16.2449L4.1665 17.7083H9.37484M15.6248 17.7083V18.75C15.6248 20.4759 14.2257 21.875 12.4998 21.875C10.7739 21.875 9.37484 20.4759 9.37484 18.75V17.7083M15.6248 17.7083H9.37484" stroke="#3F3F46" stroke-width="1.2" stroke-linecap="round" stroke-linejoin="round"/>
</svg>
