<svg width="current" height="current" viewBox="0 0 27 27" fill="none" xmlns="http://www.w3.org/2000/svg">
<path d="M21.9908 3.76643H19.5623V2.95694C19.5623 2.74226 19.477 2.53636 19.3252 2.38455C19.1734 2.23275 18.9675 2.14746 18.7528 2.14746C18.5381 2.14746 18.3322 2.23275 18.1804 2.38455C18.0286 2.53636 17.9433 2.74226 17.9433 2.95694V3.76643H9.84851V2.95694C9.84851 2.74226 9.76323 2.53636 9.61142 2.38455C9.45961 2.23275 9.25372 2.14746 9.03903 2.14746C8.82434 2.14746 8.61844 2.23275 8.46664 2.38455C8.31483 2.53636 8.22954 2.74226 8.22954 2.95694V3.76643H5.80109C5.37172 3.76643 4.95993 3.937 4.65631 4.24061C4.3527 4.54423 4.18213 4.95602 4.18213 5.38539V21.5751C4.18213 22.0044 4.3527 22.4162 4.65631 22.7198C4.95993 23.0234 5.37172 23.194 5.80109 23.194H21.9908C22.4201 23.194 22.8319 23.0234 23.1355 22.7198C23.4392 22.4162 23.6097 22.0044 23.6097 21.5751V5.38539C23.6097 4.95602 23.4392 4.54423 23.1355 4.24061C22.8319 3.937 22.4201 3.76643 21.9908 3.76643ZM8.22954 5.38539V6.19488C8.22954 6.40956 8.31483 6.61546 8.46664 6.76727C8.61844 6.91907 8.82434 7.00436 9.03903 7.00436C9.25372 7.00436 9.45961 6.91907 9.61142 6.76727C9.76323 6.61546 9.84851 6.40956 9.84851 6.19488V5.38539H17.9433V6.19488C17.9433 6.40956 18.0286 6.61546 18.1804 6.76727C18.3322 6.91907 18.5381 7.00436 18.7528 7.00436C18.9675 7.00436 19.1734 6.91907 19.3252 6.76727C19.477 6.61546 19.5623 6.40956 19.5623 6.19488V5.38539H21.9908V8.62332H5.80109V5.38539H8.22954ZM21.9908 21.5751H5.80109V10.2423H21.9908V21.5751ZM12.277 12.6707V19.1466C12.277 19.3613 12.1917 19.5672 12.0399 19.719C11.8881 19.8708 11.6822 19.9561 11.4675 19.9561C11.2528 19.9561 11.0469 19.8708 10.8951 19.719C10.7433 19.5672 10.658 19.3613 10.658 19.1466V13.9801L10.2108 14.2047C10.0186 14.3008 9.79617 14.3166 9.59237 14.2487C9.38856 14.1807 9.2201 14.0346 9.12402 13.8425C9.02795 13.6503 9.01214 13.4279 9.08007 13.2241C9.14801 13.0203 9.29412 12.8518 9.48627 12.7557L11.1052 11.9463C11.2287 11.8845 11.3659 11.8553 11.5038 11.8615C11.6417 11.8677 11.7758 11.9091 11.8932 11.9817C12.0106 12.0543 12.1075 12.1557 12.1747 12.2763C12.2418 12.3969 12.2771 12.5327 12.277 12.6707ZM18.2631 15.7518L16.3244 18.3371H17.9433C18.158 18.3371 18.3639 18.4224 18.5157 18.5742C18.6675 18.726 18.7528 18.9319 18.7528 19.1466C18.7528 19.3613 18.6675 19.5672 18.5157 19.719C18.3639 19.8708 18.158 19.9561 17.9433 19.9561H14.7054C14.5551 19.9561 14.4077 19.9142 14.2798 19.8352C14.152 19.7562 14.0486 19.6431 13.9814 19.5086C13.9142 19.3742 13.8857 19.2236 13.8992 19.0739C13.9127 18.9242 13.9676 18.7812 14.0578 18.6609L16.9699 14.7784C17.0362 14.6902 17.0837 14.5895 17.1096 14.4823C17.1355 14.375 17.1392 14.2637 17.1205 14.155C17.1018 14.0463 17.0611 13.9426 17.0008 13.8502C16.9406 13.7578 16.8621 13.6787 16.7702 13.6177C16.6783 13.5567 16.5749 13.5152 16.4664 13.4956C16.3578 13.4761 16.2464 13.4789 16.139 13.5039C16.0316 13.5289 15.9305 13.5756 15.8417 13.6412C15.753 13.7067 15.6787 13.7897 15.6232 13.885C15.5716 13.98 15.5015 14.0637 15.417 14.1311C15.3326 14.1986 15.2355 14.2485 15.1314 14.2778C15.0274 14.3071 14.9185 14.3153 14.8113 14.3019C14.704 14.2885 14.6005 14.2537 14.5069 14.1996C14.4133 14.1456 14.3315 14.0733 14.2663 13.9871C14.201 13.9009 14.1537 13.8025 14.1272 13.6977C14.1006 13.5929 14.0953 13.4839 14.1115 13.377C14.1277 13.2702 14.1652 13.1676 14.2217 13.0755C14.4891 12.6127 14.9017 12.2511 15.3955 12.0467C15.8893 11.8423 16.4367 11.8065 16.953 11.9448C17.4692 12.0832 17.9254 12.3879 18.2508 12.8119C18.5762 13.2358 18.7526 13.7553 18.7528 14.2897C18.7545 14.8176 18.5824 15.3314 18.2631 15.7518Z" fill="currentColor"/>
</svg>
