<svg width="current" height="current" viewBox="0 0 20 20" fill="none" xmlns="http://www.w3.org/2000/svg">
<path d="M15.793 14.7372C15.8492 14.7934 15.8938 14.8602 15.9242 14.9336C15.9546 15.007 15.9703 15.0858 15.9703 15.1653C15.9703 15.2448 15.9546 15.3235 15.9242 15.3969C15.8938 15.4704 15.8492 15.5371 15.793 15.5933C15.7368 15.6495 15.6701 15.6941 15.5966 15.7245C15.5232 15.7549 15.4445 15.7706 15.365 15.7706C15.2855 15.7706 15.2068 15.7549 15.1333 15.7245C15.0599 15.6941 14.9931 15.6495 14.9369 15.5933L9.91996 10.5756L4.903 15.5933C4.78948 15.7068 4.63551 15.7706 4.47497 15.7706C4.31442 15.7706 4.16045 15.7068 4.04693 15.5933C3.93341 15.4798 3.86963 15.3258 3.86963 15.1653C3.86963 15.0047 3.93341 14.8507 4.04693 14.7372L9.06465 9.72026L4.04693 4.7033C3.93341 4.58977 3.86963 4.4358 3.86963 4.27526C3.86963 4.11471 3.93341 3.96074 4.04693 3.84722C4.16045 3.7337 4.31442 3.66992 4.47497 3.66992C4.63551 3.66992 4.78948 3.7337 4.903 3.84722L9.91996 8.86494L14.9369 3.84722C15.0504 3.7337 15.2044 3.66992 15.365 3.66992C15.5255 3.66992 15.6795 3.7337 15.793 3.84722C15.9065 3.96074 15.9703 4.11471 15.9703 4.27526C15.9703 4.4358 15.9065 4.58977 15.793 4.7033L10.7753 9.72026L15.793 14.7372Z" fill="currentColor"/>
</svg>
