<svg width="20" height="20" viewBox="0 0 20 20" fill="none" xmlns="http://www.w3.org/2000/svg">
<path d="M6.99596 4.15497C6.9384 4.09741 6.89274 4.02908 6.86159 3.95387C6.83044 3.87867 6.81441 3.79807 6.81441 3.71667C6.81441 3.63527 6.83044 3.55467 6.86159 3.47946C6.89274 3.40426 6.9384 3.33593 6.99596 3.27837C7.05351 3.22081 7.12185 3.17516 7.19705 3.14401C7.27225 3.11285 7.35286 3.09682 7.43425 3.09682C7.51565 3.09682 7.59626 3.11285 7.67146 3.14401C7.74666 3.17516 7.81499 3.22081 7.87255 3.27837L14.0676 9.47339C14.1252 9.53093 14.1709 9.59925 14.202 9.67446C14.2332 9.74967 14.2493 9.83028 14.2493 9.91169C14.2493 9.9931 14.2332 10.0737 14.202 10.1489C14.1709 10.2241 14.1252 10.2925 14.0676 10.35L7.87255 16.545C7.75631 16.6613 7.59865 16.7266 7.43425 16.7266C7.26986 16.7266 7.1122 16.6613 6.99596 16.545C6.87971 16.4288 6.81441 16.2711 6.81441 16.1067C6.81441 15.9423 6.87971 15.7847 6.99596 15.6684L12.7535 9.91169L6.99596 4.15497Z" fill="#27313F"/>
</svg>
