<svg width="20" height="20" viewBox="0 0 20 20" fill="none" xmlns="http://www.w3.org/2000/svg">
<path d="M13.004 15.845C13.0616 15.9026 13.1073 15.9709 13.1384 16.0461C13.1696 16.1213 13.1856 16.2019 13.1856 16.2833C13.1856 16.3647 13.1696 16.4453 13.1384 16.5205C13.1073 16.5957 13.0616 16.6641 13.004 16.7216C12.9465 16.7792 12.8782 16.8248 12.803 16.856C12.7277 16.8871 12.6471 16.9032 12.5657 16.9032C12.4843 16.9032 12.4037 16.8871 12.3285 16.856C12.2533 16.8248 12.185 16.7792 12.1274 16.7216L5.93242 10.5266C5.87482 10.4691 5.82913 10.4007 5.79796 10.3255C5.76678 10.2503 5.75073 10.1697 5.75073 10.0883C5.75073 10.0069 5.76678 9.92628 5.79796 9.85107C5.82913 9.77587 5.87482 9.70754 5.93242 9.65001L12.1274 3.45499C12.2437 3.33874 12.4014 3.27344 12.5657 3.27344C12.7301 3.27344 12.8878 3.33874 13.004 3.45499C13.1203 3.57123 13.1856 3.72889 13.1856 3.89328C13.1856 4.05768 13.1203 4.21534 13.004 4.33158L7.24654 10.0883L13.004 15.845Z" fill="#27313F"/>
</svg>
