<svg width="27" height="27" viewBox="0 0 27 27" fill="none" xmlns="http://www.w3.org/2000/svg">
<path d="M22.5162 11.0242L14.4213 19.1191C14.3461 19.1943 14.2569 19.254 14.1586 19.2948C14.0603 19.3355 13.955 19.3565 13.8486 19.3565C13.7422 19.3565 13.6369 19.3355 13.5386 19.2948C13.4404 19.254 13.3511 19.1943 13.2759 19.1191L5.18107 11.0242C5.02918 10.8724 4.94385 10.6663 4.94385 10.4515C4.94385 10.2367 5.02918 10.0307 5.18107 9.87883C5.33296 9.72693 5.53897 9.6416 5.75378 9.6416C5.96859 9.6416 6.1746 9.72693 6.32649 9.87883L13.8486 17.402L21.3707 9.87883C21.4459 9.80362 21.5352 9.74396 21.6335 9.70325C21.7318 9.66255 21.8371 9.6416 21.9434 9.6416C22.0498 9.6416 22.1551 9.66255 22.2534 9.70325C22.3517 9.74396 22.4409 9.80362 22.5162 9.87883C22.5914 9.95403 22.651 10.0433 22.6917 10.1416C22.7324 10.2399 22.7534 10.3452 22.7534 10.4515C22.7534 10.5579 22.7324 10.6632 22.6917 10.7615C22.651 10.8597 22.5914 10.949 22.5162 11.0242Z" fill="#1A212B"/>
</svg>
