<svg width="28" height="27" viewBox="0 0 28 27" fill="none" xmlns="http://www.w3.org/2000/svg">
<path fill-rule="evenodd" clip-rule="evenodd" d="M14.052 5.18912L12.8425 3.92395C10.0033 0.954142 4.79728 1.97898 2.91799 5.7127C2.0357 7.46883 1.83663 10.0043 3.4477 13.2402C4.99972 16.3559 8.22859 20.0879 14.052 24.153C19.8755 20.0879 23.1027 16.3559 24.6564 13.2402C26.2674 10.0026 26.0701 7.46883 25.1861 5.7127C23.3068 1.97898 18.1008 0.952425 15.2616 3.92223L14.052 5.18912ZM14.052 26.2215C-11.8144 8.82842 6.08782 -4.74686 13.7551 2.4339C13.8563 2.52831 13.9559 2.62616 14.052 2.72744C14.1472 2.62625 14.2463 2.5289 14.3489 2.43561C22.0146 -4.75029 39.9185 8.8267 14.052 26.2215Z" fill="#D1D1D1"/>
</svg>
