<svg width="32" height="30" viewBox="0 0 32 30" fill="none" xmlns="http://www.w3.org/2000/svg">
<path fill-rule="evenodd" clip-rule="evenodd" d="M15.6742 5.47898L14.2694 4.00957C10.9719 0.560346 4.92549 1.75063 2.74282 6.08708C1.71811 8.12671 1.48691 11.0715 3.35804 14.8298C5.16061 18.4485 8.91072 22.7829 15.6742 27.5042C22.4378 22.7829 26.1859 18.4485 27.9904 14.8298C29.8616 11.0695 29.6323 8.12671 28.6057 6.08708C26.423 1.75063 20.3766 0.558353 17.0791 4.00758L15.6742 5.47898ZM15.6742 29.9067C-14.3678 9.70577 6.42436 -6.06097 15.3294 2.27898C15.447 2.38863 15.5626 2.50228 15.6742 2.61991C15.7848 2.50239 15.8998 2.38932 16.0191 2.28097C24.9222 -6.06495 45.7163 9.70378 15.6742 29.9067Z" fill="#D1D1D1"/>
</svg>
