<svg width="22" height="11" viewBox="0 0 22 11" fill="none" xmlns="http://www.w3.org/2000/svg">
<path d="M2.037 5.36052C2.037 3.52722 3.52722 2.037 5.36052 2.037H9.64893V0H5.36052C2.40151 0 0 2.40151 0 5.36052C0 8.31952 2.40151 10.721 5.36052 10.721H9.64893V8.68404H5.36052C3.52722 8.68404 2.037 7.19381 2.037 5.36052ZM6.43262 6.43262H15.0094V4.28841H6.43262V6.43262ZM16.0816 0H11.7931V2.037H16.0816C17.9148 2.037 19.4051 3.52722 19.4051 5.36052C19.4051 7.19381 17.9148 8.68404 16.0816 8.68404H11.7931V10.721H16.0816C19.0406 10.721 21.4421 8.31952 21.4421 5.36052C21.4421 2.40151 19.0406 0 16.0816 0Z" fill="#656565"/>
</svg>
