<svg width="current" height="current" viewBox="0 0 18 18" fill="none" xmlns="http://www.w3.org/2000/svg">
<path d="M10.0896 12.7362C10.0896 12.8971 10.0418 13.0545 9.95243 13.1883C9.86302 13.3221 9.73594 13.4264 9.58726 13.4879C9.43859 13.5495 9.27499 13.5656 9.11715 13.5342C8.95932 13.5029 8.81433 13.4254 8.70054 13.3116C8.58675 13.1978 8.50925 13.0528 8.47786 12.895C8.44646 12.7371 8.46258 12.5735 8.52416 12.4248C8.58574 12.2762 8.69003 12.1491 8.82384 12.0597C8.95765 11.9703 9.11496 11.9226 9.27589 11.9226C9.49169 11.9226 9.69865 12.0083 9.85124 12.1609C10.0038 12.3135 10.0896 12.5204 10.0896 12.7362ZM9.27589 5.41323C7.7801 5.41323 6.56367 6.50829 6.56367 7.85423V8.12545C6.56367 8.26931 6.62082 8.40728 6.72255 8.50901C6.82428 8.61074 6.96225 8.66789 7.10612 8.66789C7.24998 8.66789 7.38795 8.61074 7.48968 8.50901C7.59141 8.40728 7.64856 8.26931 7.64856 8.12545V7.85423C7.64856 7.10837 8.37882 6.49812 9.27589 6.49812C10.173 6.49812 10.9032 7.10837 10.9032 7.85423C10.9032 8.60009 10.173 9.21033 9.27589 9.21033C9.13202 9.21033 8.99405 9.26748 8.89232 9.36921C8.7906 9.47094 8.73345 9.60891 8.73345 9.75278V10.2952C8.73345 10.4391 8.7906 10.5771 8.89232 10.6788C8.99405 10.7805 9.13202 10.8377 9.27589 10.8377C9.41975 10.8377 9.55773 10.7805 9.65945 10.6788C9.76118 10.5771 9.81833 10.4391 9.81833 10.2952V10.2464C11.0551 10.0193 11.9881 9.03268 11.9881 7.85423C11.9881 6.50829 10.7717 5.41323 9.27589 5.41323ZM16.3277 9.21033C16.3277 10.605 15.9141 11.9684 15.1392 13.1281C14.3644 14.2877 13.263 15.1916 11.9745 15.7253C10.6859 16.259 9.26807 16.3987 7.90016 16.1266C6.53225 15.8545 5.27575 15.1829 4.28954 14.1967C3.30333 13.2105 2.63172 11.954 2.35962 10.5861C2.08753 9.21816 2.22718 7.80028 2.76091 6.51174C3.29464 5.2232 4.19848 4.12186 5.35814 3.34701C6.5178 2.57215 7.88118 2.15857 9.27589 2.15857C11.1455 2.16054 12.938 2.90413 14.2601 4.22616C15.5821 5.5482 16.3257 7.3407 16.3277 9.21033ZM15.2428 9.21033C15.2428 8.0302 14.8928 6.87656 14.2372 5.89531C13.5815 4.91407 12.6496 4.14928 11.5593 3.69766C10.469 3.24604 9.26927 3.12787 8.11181 3.35811C6.95435 3.58834 5.89115 4.15663 5.05667 4.99111C4.22219 5.8256 3.6539 6.88879 3.42366 8.04625C3.19343 9.20372 3.31159 10.4035 3.76321 11.4938C4.21483 12.5841 4.97962 13.516 5.96087 14.1716C6.94212 14.8273 8.09575 15.1772 9.27589 15.1772C10.8579 15.1754 12.3745 14.5462 13.4931 13.4276C14.6117 12.309 15.241 10.7923 15.2428 9.21033Z" fill="currentColor"/>
</svg>
