<svg width="current" height="current" viewBox="0 0 18 19" fill="none" xmlns="http://www.w3.org/2000/svg">
<path d="M10.0896 13.0757C10.0896 13.2367 10.0418 13.394 9.95243 13.5278C9.86302 13.6616 9.73594 13.7659 9.58726 13.8275C9.43859 13.889 9.27499 13.9052 9.11715 13.8738C8.95932 13.8424 8.81433 13.7649 8.70054 13.6511C8.58675 13.5373 8.50925 13.3923 8.47786 13.2345C8.44646 13.0766 8.46258 12.913 8.52416 12.7643C8.58574 12.6157 8.69003 12.4886 8.82384 12.3992C8.95765 12.3098 9.11496 12.2621 9.27589 12.2621C9.49169 12.2621 9.69865 12.3478 9.85124 12.5004C10.0038 12.653 10.0896 12.8599 10.0896 13.0757ZM9.27589 5.75274C7.7801 5.75274 6.56367 6.8478 6.56367 8.19373V8.46496C6.56367 8.60882 6.62082 8.74679 6.72255 8.84852C6.82428 8.95025 6.96225 9.0074 7.10612 9.0074C7.24998 9.0074 7.38795 8.95025 7.48968 8.84852C7.59141 8.74679 7.64856 8.60882 7.64856 8.46496V8.19373C7.64856 7.44787 8.37882 6.83763 9.27589 6.83763C10.173 6.83763 10.9032 7.44787 10.9032 8.19373C10.9032 8.93959 10.173 9.54984 9.27589 9.54984C9.13202 9.54984 8.99405 9.60699 8.89232 9.70872C8.7906 9.81045 8.73345 9.94842 8.73345 10.0923V10.6347C8.73345 10.7786 8.7906 10.9166 8.89232 11.0183C8.99405 11.12 9.13202 11.1772 9.27589 11.1772C9.41975 11.1772 9.55773 11.12 9.65945 11.0183C9.76118 10.9166 9.81833 10.7786 9.81833 10.6347V10.5859C11.0551 10.3588 11.9881 9.37219 11.9881 8.19373C11.9881 6.8478 10.7717 5.75274 9.27589 5.75274ZM16.3277 9.54984C16.3277 10.9445 15.9141 12.3079 15.1392 13.4676C14.3644 14.6272 13.263 15.5311 11.9745 16.0648C10.6859 16.5986 9.26807 16.7382 7.90016 16.4661C6.53225 16.194 5.27575 15.5224 4.28954 14.5362C3.30333 13.55 2.63172 12.2935 2.35962 10.9256C2.08753 9.55767 2.22718 8.13979 2.76091 6.85125C3.29464 5.56271 4.19848 4.46137 5.35814 3.68651C6.5178 2.91166 7.88118 2.49808 9.27589 2.49808C11.1455 2.50005 12.938 3.24364 14.2601 4.56567C15.5821 5.88771 16.3257 7.6802 16.3277 9.54984ZM15.2428 9.54984C15.2428 8.36971 14.8928 7.21607 14.2372 6.23482C13.5815 5.25357 12.6496 4.48878 11.5593 4.03717C10.469 3.58555 9.26927 3.46738 8.11181 3.69762C6.95435 3.92785 5.89115 4.49614 5.05667 5.33062C4.22219 6.16511 3.6539 7.2283 3.42366 8.38576C3.19343 9.54322 3.31159 10.743 3.76321 11.8333C4.21483 12.9236 4.97962 13.8555 5.96087 14.5111C6.94212 15.1668 8.09575 15.5167 9.27589 15.5167C10.8579 15.5149 12.3745 14.8857 13.4931 13.7671C14.6117 12.6485 15.241 11.1318 15.2428 9.54984Z" fill="currentColor"/>
</svg>
