<svg width="18" height="18" viewBox="0 0 18 18" fill="none" xmlns="http://www.w3.org/2000/svg">
<path d="M16.4145 12.8347L10.485 2.53712C10.3368 2.28484 10.1253 2.07565 9.87133 1.93031C9.6174 1.78496 9.3299 1.7085 9.03732 1.7085C8.74474 1.7085 8.45723 1.78496 8.20331 1.93031C7.94938 2.07565 7.73785 2.28484 7.58967 2.53712L1.66009 12.8347C1.51752 13.0788 1.44238 13.3563 1.44238 13.6389C1.44238 13.9215 1.51752 14.1991 1.66009 14.4431C1.80636 14.6969 2.01754 14.9072 2.27194 15.0525C2.52634 15.1977 2.8148 15.2727 3.10773 15.2696H14.9669C15.2596 15.2724 15.5478 15.1974 15.8019 15.0521C16.0561 14.9069 16.267 14.6967 16.4132 14.4431C16.556 14.1992 16.6313 13.9217 16.6316 13.6391C16.6318 13.3565 16.5569 13.0789 16.4145 12.8347ZM8.49488 7.13298C8.49488 6.98911 8.55203 6.85114 8.65375 6.74941C8.75548 6.64768 8.89345 6.59053 9.03732 6.59053C9.18118 6.59053 9.31916 6.64768 9.42088 6.74941C9.52261 6.85114 9.57976 6.98911 9.57976 7.13298V9.84519C9.57976 9.98906 9.52261 10.127 9.42088 10.2288C9.31916 10.3305 9.18118 10.3876 9.03732 10.3876C8.89345 10.3876 8.75548 10.3305 8.65375 10.2288C8.55203 10.127 8.49488 9.98906 8.49488 9.84519V7.13298ZM9.03732 13.0999C8.87639 13.0999 8.71908 13.0521 8.58527 12.9627C8.45146 12.8733 8.34717 12.7462 8.28559 12.5976C8.22401 12.4489 8.20789 12.2853 8.23929 12.1275C8.27068 11.9696 8.34818 11.8246 8.46197 11.7108C8.57576 11.597 8.72074 11.5196 8.87858 11.4882C9.03642 11.4568 9.20002 11.4729 9.34869 11.5345C9.49737 11.596 9.62445 11.7003 9.71386 11.8341C9.80326 11.9679 9.85098 12.1253 9.85098 12.2862C9.85098 12.502 9.76526 12.7089 9.61267 12.8615C9.46007 13.0141 9.25312 13.0999 9.03732 13.0999Z" fill="#F14A58"/>
</svg>
